<svg width="1405" height="2289" viewBox="0 0 1405 2289" fill="none" xmlns="http://www.w3.org/2000/svg">
<path d="M1141.27 2288.85C1471.32 1987.29 1493.1 1476.31 1191.53 1147.94C889.968 819.569 378.985 796.114 47.2654 1097.68C30.5119 1114.43 13.7583 1127.83 0.355469 1144.59L1141.27 2288.85Z" fill="#00916E"/>
<path d="M0.37793 1144.57C317.02 1457.86 824.652 1457.86 1141.29 1144.57C1225.06 1060.8 1687.46 548.141 1141.29 0.300781L0.37793 1144.57Z" fill="#FED82F"/>
<path d="M1141.27 1144.59L1164.73 1121.13C864.838 821.245 358.881 826.272 40.5639 1106.06L0.355469 1144.59L38.8887 1179.77C358.881 1461.23 841.383 1444.48 1141.27 1144.59Z" fill="#14B35F"/>
<path d="M1122.83 424.167C1181.47 424.167 1231.73 377.257 1231.73 315.269C1231.73 253.281 1184.82 206.371 1122.83 206.371C1064.19 206.371 1013.93 253.281 1013.93 315.269C1013.93 373.906 1060.84 424.167 1122.83 424.167Z" fill="#00916E"/>
</svg>
