<svg width="8815" height="2289" viewBox="0 0 8815 2289" fill="none" xmlns="http://www.w3.org/2000/svg">
<path d="M1141.27 2288.85C1471.32 1987.29 1493.1 1476.31 1191.53 1147.94C889.968 819.569 378.985 796.114 47.2654 1097.68C30.5119 1114.43 13.7583 1127.83 0.355469 1144.59L1141.27 2288.85Z" fill="#00916E"/>
<path d="M0.37793 1144.57C317.02 1457.86 824.652 1457.86 1141.29 1144.57C1225.06 1060.8 1687.46 548.141 1141.29 0.300781L0.37793 1144.57Z" fill="#FED82F"/>
<path d="M1141.27 1144.59L1164.73 1121.13C864.838 821.245 358.881 826.272 40.5639 1106.06L0.355469 1144.59L38.8887 1179.77C358.881 1461.23 841.383 1444.48 1141.27 1144.59Z" fill="#14B35F"/>
<path d="M1122.83 424.167C1181.47 424.167 1231.73 377.257 1231.73 315.269C1231.73 253.281 1184.82 206.371 1122.83 206.371C1064.19 206.371 1013.93 253.281 1013.93 315.269C1013.93 373.906 1060.84 424.167 1122.83 424.167Z" fill="#00916E"/>
<path d="M1921.96 648.615H2193.37L2195.04 826.202C2248.65 702.226 2357.55 630.186 2494.93 630.186C2647.39 630.186 2757.96 703.902 2808.22 829.553C2873.56 703.902 2985.81 630.186 3131.57 630.186C3346.01 630.186 3475.01 780.967 3475.01 1008.82V1740.94H3195.23V1077.51C3195.23 953.529 3138.27 879.814 3029.37 879.814C2905.39 879.814 2838.38 955.204 2838.38 1116.04V1742.62H2558.6V1077.51C2558.6 953.529 2501.63 879.814 2392.73 879.814C2268.76 879.814 2201.74 955.204 2201.74 1116.04V1742.62H1921.96V648.615Z" fill="white"/>
<path d="M3892.2 648.611L4138.48 1405.87L4373.03 648.611H4662.86L4284.23 1727.54C4198.79 1967.11 4086.54 2107.84 3845.29 2107.84C3773.25 2107.84 3694.51 2087.74 3657.65 2055.91V1824.71C3699.53 1846.49 3758.17 1856.54 3801.73 1856.54C3910.63 1856.54 3964.24 1811.31 3984.34 1732.56L3583.94 648.611H3892.2Z" fill="white"/>
<path d="M5589.29 1742.66H5326.26L5324.58 1560.05C5274.32 1685.7 5178.83 1759.42 5034.75 1759.42C4820.3 1759.42 4684.6 1608.63 4684.6 1432.72C4684.6 1132.83 4949.3 1094.3 5168.77 1074.2L5312.85 1060.79V1037.34C5312.85 926.766 5205.63 868.128 5054.85 868.128C4939.25 868.128 4828.68 898.284 4721.45 956.922L4788.47 700.593C4895.69 646.981 5009.62 628.553 5116.84 628.553C5371.49 628.553 5589.29 747.503 5589.29 1030.64V1742.66ZM5125.21 1538.27C5225.74 1538.27 5312.85 1456.18 5312.85 1320.47V1245.08L5158.72 1260.16C5028.04 1273.56 4966.06 1312.1 4966.06 1400.89C4964.38 1477.96 5014.64 1538.27 5125.21 1538.27Z" fill="white"/>
<path d="M5808.8 181.215H6088.58V1742.65H5808.8V181.215Z" fill="white"/>
<path d="M6326.49 181.215H6611.3V472.726H6326.49V181.215ZM6328.17 648.639H6607.95V1742.65H6328.17V648.639Z" fill="white"/>
<path d="M7405.42 876.505C7249.61 876.505 7067 956.922 7067 1181.42C7067 1422.67 7249.61 1524.87 7447.31 1524.87C7527.72 1524.87 7621.54 1498.06 7683.53 1457.85V1705.81C7633.27 1735.96 7527.72 1769.47 7405.42 1769.47C7140.72 1769.47 6782.19 1623.71 6782.19 1198.17C6782.19 747.503 7162.5 628.553 7410.45 628.553C7544.48 628.553 7636.62 658.709 7695.26 700.593L7629.92 941.844C7571.28 903.31 7492.54 876.505 7405.42 876.505Z" fill="white"/>
<path d="M8415.64 1771.12C7985.08 1771.12 7770.63 1528.19 7770.63 1193.12C7770.63 886.528 7970 621.822 8325.18 621.822C8633.44 621.822 8814.38 874.801 8814.38 1167.99C8814.38 1206.52 8812.7 1261.81 8806 1296.99H8062.15C8097.33 1451.12 8221.3 1536.57 8447.48 1536.57C8569.78 1536.57 8693.75 1499.71 8764.12 1447.77V1694.05C8683.7 1742.63 8532.92 1771.12 8415.64 1771.12ZM8313.45 854.697C8172.72 854.697 8080.57 948.517 8057.12 1097.62H8539.62C8521.19 951.867 8439.1 854.697 8313.45 854.697Z" fill="white"/>
</svg>
