<svg width="106" height="29" viewBox="0 0 106 29" fill="none" xmlns="http://www.w3.org/2000/svg">
<path d="M11.6076 27.8049C13.1468 26.281 14.0116 24.2141 14.0116 22.0589C14.0116 19.9037 13.1468 17.8368 11.6076 16.3128C10.0683 14.7889 7.98064 13.9327 5.8038 13.9327C3.62695 13.9327 1.53926 14.7889 0 16.3128L11.6076 27.8049Z" fill="#01906D"/>
<path d="M0 16.352C1.53957 17.8754 3.62714 18.7311 5.8038 18.7311C7.98046 18.7311 10.068 17.8754 11.6076 16.352C12.4602 15.5078 17.1675 10.3645 11.6076 4.85989L0 16.352Z" fill="#FFD82F"/>
<path d="M11.6076 16.352V16.3303C10.1344 14.8735 8.15684 14.0257 6.07581 13.9586C3.99474 13.8916 1.96575 14.6103 0.399959 15.9691L0 16.3303L0.382378 16.7132C1.94921 18.077 3.98195 18.7989 6.06717 18.7318C8.15241 18.6647 10.1335 17.8137 11.6076 16.352Z" fill="#04B35F"/>
<path d="M11.3922 9.08075C12.0039 9.08075 12.4998 8.58982 12.4998 7.98424C12.4998 7.37861 12.0039 6.88767 11.3922 6.88767C10.7805 6.88767 10.2847 7.37861 10.2847 7.98424C10.2847 8.58982 10.7805 9.08075 11.3922 9.08075Z" fill="#01906D"/>
<path d="M18.9941 23.7418H22.4957V16.0093C22.4957 14.0225 23.3372 13.0827 24.8844 13.0827C26.2416 13.0827 26.9474 13.9956 26.9474 15.526V23.7418H30.449V16.0093C30.449 14.0225 31.2905 13.0827 32.8377 13.0827C34.1949 13.0827 34.9007 13.9956 34.9007 15.526V23.7418H38.4023V14.6937C38.4023 11.8745 36.8008 10.022 34.1135 10.022C32.2948 10.022 30.8833 10.9348 30.069 12.4921C29.4446 10.9348 28.0603 10.022 26.1602 10.022C24.4501 10.022 23.0929 10.908 22.4143 12.4384L22.3871 10.2368H18.9941V23.7418ZM39.7447 10.2368L44.7393 23.6344C44.495 24.6009 43.8163 25.1648 42.4591 25.1648C41.9162 25.1648 41.1833 25.0305 40.6676 24.762V27.608C41.1291 28.0107 42.1063 28.2524 43.002 28.2524C46.015 28.2524 47.4265 26.5072 48.4852 23.5538L53.2083 10.2368H49.5981L46.6665 19.5802L43.5992 10.2368H39.7447ZM57.0162 19.5265C57.0162 18.4257 57.8034 17.9424 59.432 17.7813L61.3593 17.5934V18.5331C61.3593 20.1977 60.2735 21.218 59.0249 21.218C57.6405 21.218 57.0162 20.4662 57.0162 19.5265ZM64.8066 14.9622C64.8066 11.4718 62.0922 9.99512 58.9163 9.99512C57.5862 9.99512 56.1475 10.2099 54.8175 10.8811L53.976 14.0493C55.3061 13.3244 56.6904 12.9485 58.1291 12.9485C60.0292 12.9485 61.3593 13.6734 61.3593 15.0427V15.3381L59.5677 15.4992C56.8262 15.7408 53.5145 16.2241 53.5145 19.9292C53.5145 22.104 55.1975 23.9566 57.8848 23.9566C59.6763 23.9566 60.8707 23.0437 61.495 21.4865L61.5221 23.7418H64.8066V14.9622ZM67.5571 23.7418H71.0588V4.46425H67.5571V23.7418ZM74.0516 23.7418H77.5532V10.2368H74.0516V23.7418ZM74.0244 8.062H77.5803V4.46425H74.0244V8.062ZM90.3183 13.8345L91.1326 10.8543C90.3996 10.3442 89.2591 9.96828 87.5765 9.96828C84.4818 9.96828 79.7317 11.445 79.7317 17.0027C79.7317 22.2651 84.2104 24.064 87.5225 24.064C89.0424 24.064 90.3723 23.6612 90.9965 23.2853V20.2246C90.2096 20.7347 89.0424 21.0569 88.038 21.0569C85.5676 21.0569 83.2873 19.795 83.2873 16.8147C83.2873 14.0493 85.5676 13.0559 87.5225 13.0559C88.6083 13.0559 89.5853 13.3781 90.3183 13.8345ZM104.463 23.0974V20.0635C103.567 20.7078 102.02 21.1643 100.5 21.1643C97.6771 21.1643 96.1298 20.1172 95.6956 18.2109H104.979C105.06 17.7813 105.087 17.1101 105.087 16.6268C105.087 13.0022 102.835 9.88773 98.9795 9.88773C94.5551 9.88773 92.0581 13.1633 92.0581 16.949C92.0581 21.0837 94.7452 24.0908 100.12 24.0908C101.586 24.0908 103.486 23.7418 104.463 23.0974ZM101.667 15.7945H95.6409C95.9397 13.9419 97.0794 12.7874 98.8442 12.7874C100.419 12.7874 101.45 13.9688 101.667 15.7945Z" fill="#111827"/>
</svg>
