<svg width="8815" height="2289" viewBox="0 0 8815 2289" fill="none" xmlns="http://www.w3.org/2000/svg">
<path d="M1140.92 2288.55C1470.96 1986.99 1492.74 1476.01 1191.18 1147.64C889.613 819.269 378.63 795.814 46.91 1097.38C30.1564 1114.13 13.4028 1127.53 0 1144.29L1140.92 2288.55Z" fill="#00916E"/>
<path d="M0.0221558 1144.27C316.664 1457.56 824.296 1457.56 1140.94 1144.27C1224.71 1060.5 1687.1 547.841 1140.94 0L0.0221558 1144.27Z" fill="#FED82F"/>
<path d="M1140.92 1144.29L1164.37 1120.83C864.483 820.945 358.526 825.971 40.2084 1105.75L0 1144.29L38.5332 1179.47C358.526 1460.93 841.028 1444.18 1140.92 1144.29Z" fill="#14B35F"/>
<path d="M1122.48 423.866C1181.11 423.866 1231.37 376.956 1231.37 314.968C1231.37 252.98 1184.46 206.07 1122.48 206.07C1063.84 206.07 1013.58 252.98 1013.58 314.968C1013.58 373.606 1060.49 423.866 1122.48 423.866Z" fill="#00916E"/>
<path d="M1921.61 648.313H2193.01L2194.69 825.9C2248.3 701.924 2357.2 629.884 2494.58 629.884C2647.03 629.884 2757.61 703.6 2807.87 829.251C2873.21 703.6 2985.45 629.884 3131.21 629.884C3345.66 629.884 3474.66 780.666 3474.66 1008.51V1740.64H3194.87V1077.2C3194.87 953.227 3137.91 879.512 3029.01 879.512C2905.04 879.512 2838.02 954.902 2838.02 1115.74V1742.32H2558.24V1077.2C2558.24 953.227 2501.28 879.512 2392.38 879.512C2268.4 879.512 2201.39 954.902 2201.39 1115.74V1742.32H1921.61V648.313V648.313Z" fill="#1F2937"/>
<path d="M3891.85 648.311L4138.12 1405.57L4372.67 648.311H4662.51L4283.88 1727.24C4198.44 1966.81 4086.19 2107.54 3844.94 2107.54C3772.9 2107.54 3694.15 2087.44 3657.3 2055.61V1824.41C3699.18 1846.19 3757.82 1856.24 3801.38 1856.24C3910.27 1856.24 3963.89 1811.01 3983.99 1732.26L3583.58 648.311H3891.85V648.311Z" fill="#1F2937"/>
<path d="M5588.93 1742.36H5325.9L5324.23 1559.75C5273.96 1685.4 5178.47 1759.12 5034.39 1759.12C4819.94 1759.12 4684.24 1608.33 4684.24 1432.42C4684.24 1132.53 4948.95 1094 5168.42 1073.9L5312.5 1060.49V1037.04C5312.5 926.465 5205.28 867.827 5054.49 867.827C4938.89 867.827 4828.32 897.984 4721.1 956.621L4788.11 700.292C4895.33 646.681 5009.26 628.252 5116.48 628.252C5371.14 628.252 5588.93 747.202 5588.93 1030.34V1742.36V1742.36ZM5124.86 1537.97C5225.38 1537.97 5312.5 1455.88 5312.5 1320.17V1244.78L5158.37 1259.86C5027.69 1273.26 4965.7 1311.8 4965.7 1400.59C4964.02 1477.66 5014.29 1537.97 5124.86 1537.97Z" fill="#1F2937"/>
<path d="M5808.44 180.913H6088.23V1742.34H5808.44V180.913Z" fill="#1F2937"/>
<path d="M6326.13 180.913H6610.94V472.425H6326.13V180.913ZM6327.81 648.337H6607.59V1742.34H6327.81V648.337Z" fill="#1F2937"/>
<path d="M7405.07 876.204C7249.26 876.204 7066.65 956.621 7066.65 1181.12C7066.65 1422.37 7249.26 1524.57 7446.95 1524.57C7527.37 1524.57 7621.19 1497.76 7683.18 1457.55V1705.5C7632.91 1735.66 7527.37 1769.17 7405.07 1769.17C7140.36 1769.17 6781.83 1623.41 6781.83 1197.87C6781.83 747.202 7162.14 628.252 7410.09 628.252C7544.12 628.252 7636.27 658.408 7694.9 700.292L7629.56 941.543C7570.93 903.01 7492.19 876.204 7405.07 876.204Z" fill="#1F2937"/>
<path d="M8415.29 1770.81C7984.72 1770.81 7770.28 1527.89 7770.28 1192.82C7770.28 886.227 7969.65 621.521 8324.82 621.521C8633.09 621.521 8814.02 874.5 8814.02 1167.69C8814.02 1206.22 8812.35 1261.51 8805.65 1296.69H8061.79C8096.97 1450.82 8220.95 1536.27 8447.12 1536.27C8569.42 1536.27 8693.4 1499.41 8763.76 1447.47V1693.75C8683.34 1742.33 8532.56 1770.81 8415.29 1770.81ZM8313.09 854.396C8172.36 854.396 8080.22 948.216 8056.76 1097.32H8539.27C8520.84 951.567 8438.74 854.396 8313.09 854.396Z" fill="#1F2937"/>
</svg>
